<?xml version="1.0" encoding="UTF-8"?><svg id="Layer_1" xmlns="http://www.w3.org/2000/svg" width="111.52" height="78.94" viewBox="0 0 111.52 78.94"><defs><style>.cls-1{fill:#abcdec;}</style></defs><path class="cls-1" d="M9.67,55.77c-5.71-7.21,6.93-11.94,12.29-13.65.28-.34,2.07-.3,1-.92-3.34-5.86.05-14.25,6.49-16.16-6.27-9.35,35.7-16,28.96-3.5-.03,4.05,6.56-2.88,4.81,3.85,1.44-.2-3.33,4.36-1,3.08,1.55-.86,2.41,2.09,1.05,3.06-.6.63-2.24,1.52-.54,1.36,1.59.17.14,2.79,1.56,2.72,5.86.87,20.44,2.14,17.6,10.33.16.3-.47.79.15.71,2.93,13.49-74.23,21.74-71.95,9.98l-.3.2-.12-1.06ZM45.85,16.11c-3.21-.6-22.49,6.61-12.62,8.26-.38,3.25,14.49.73,18.06,0,13.76-4.74,2.99-9.14-5.43-8.26ZM52.09,51.07c.08.03.84-.13,1.01-.12l-.14-.14c3.97-.54,8.79-6.38,4.7-8.85-2.54.63-3.17-1.65-.92-2.79-2.98.29-2.51-1.24-1.12-3.03-2.23,1.25-2.68-1.84-1.4-3.27-6.05-2.05,3.99-5.46,2.26-8.14-4,.52-17.93,4.46-24.91,1.92-1.14-1.5-.89,4.99.85,3.81,2.22-1.05,9.42-.69,5.63,3.57,1.47-.22,6.41.34,2.17,3.04,2.88,2.1-.35,3.2-2.69,3.9.9.32,1.01,1.16.77,2.06-11.5,5.34,1.37,10.49,8.09,9.67-.12-.26,1.4-.17,1.61-.45-2.1-.1-4.72.38-5.43-.39,3.06.05,7.02.48,9.53-.78ZM29.14,26.83c-12.05,4.84-4.65,21.65,7.13,15.9.15-.06.59-.18.2-.29-.83-.97-1.47.13-2.42-.02-2.57-2.04,1.74-2.55,3.05-3.07.79.11,3.53-.99,1.01-.75-1.84-.43-4.6,2.61-5.46.82-.31-2.93,8.29-2.47,6.63-4.13-1.96.5-7.19.18-7.78,1.88-2.35-4.03,6.34-1.67,5.38-5.43-2.18-1.77-8.58,2.88-8.92-.28.18-.24.63-.81.94-.41.99-.87.11-3.04.23-4.2ZM61.54,23.3c-1.26-.05-1.8.87-2.65,1.3-.35,6.41,5.55.27,2.65-1.3ZM57.3,27.65c-4.45.85-3.55,6.74.06,2.35,4.2-2.38,2.02-.54-.06-2.35ZM61.01,27.36c-.5.07-1.19.22-1.19.83.45-.16,1.09-.39,1.19-.83ZM61.88,29.48c-2,.65-3.89,1.9-5.62,3.34.23-.04.29.04.29.26-2.36-.08-1.46,3.18.45,1.24,1.21-.4,8.05-3.75,4.89-4.84ZM62.13,34.32c-.99-.14-8.04,3.04-4.94,3.61,1.62-.94,5.34-1.28,4.94-3.61ZM63.59,37.64c-.42-.22-.63.33-.42.59.43.06.95-.41.42-.59ZM65.65,37.61c-.74-.16-.95.53-1.45.36-.26.16.15.72-.16.45-1.45-.14-2.44,2.13-3.74,2.75.11,1.6-.21,3.68.83,4.92.72,1.24-2.88,2.4-2.09,2.93-6.28,4.58-15.87,7.05-23.3,3.35-7.23-5.11,1.32-5.61-9.7-8.49-8.55-3.97-26.16,12.86-8.26,12.55,10.52,7.72,94.51-11.23,47.87-18.83ZM60.27,38.88c-.17-.08-.6-.08-.4.19-.78-.28-3.52,1.92-1.73,1.54.61.43,3.92-1.71,2.13-1.73ZM80.28,46.94c-9.05,6.41-20.38,9.28-31.49,10.99l.11-.17-.38.04.08.15c-1.07.39-1.5.09-2.72.32l.08.15c-10.98,1.48-24.8.92-34.24-1.04,6.69,6.91,68.15,1.74,68.56-10.45Z"/><path class="cls-1" d="M4.42,43.8c-6.99,7.87,5.69,10.83-1.28,9.8C0,51.88.1,43.06,4.42,43.8Z"/><path class="cls-1" d="M87.87,41.25c8.31,3.09-2.95,15.99,1.98,5.86-.06-1.29-.7-2.75-1.55-3.46.63-.25-1.03-.33-1.18-.3-1.08-.95-.63-1.98.75-2.1Z"/><path class="cls-1" d="M86.3,44.21c4.29,1.95-3.21,12.45-4.06,7.97,6.56-1.69.73-7.56,4.06-7.97Z"/><path class="cls-1" d="M7.49,42.65c1.51,2-4.5,3.05-.72,7.07.86,1.87-2.16.38-2.25-.76-.76-1.92.21-6.36,2.97-6.31Z"/><path class="cls-1" d="M31.6,38.13c.25.07.35.63.01.58-.04-.18.05-.47-.25-.46.04-.09.14-.14.23-.12Z"/></svg>