<?xml version="1.0" encoding="UTF-8"?><svg id="Layer_1" xmlns="http://www.w3.org/2000/svg" width="111.52" height="78.94" viewBox="0 0 111.52 78.94"><defs><style>.cls-1,.cls-2{fill:#4a3d39;}.cls-2{stroke:#594a42;stroke-miterlimit:10;stroke-width:.25px;}</style></defs><path class="cls-2" d="M7.88,51.59c-4.84-7.82,8.26-11.06,13.78-12.14.32-.3,2.09-.06,1.1-.8-2.65-6.21,1.69-14.15,8.31-15.31-5.15-10.01,37.31-11.78,29.17-.14-.5,4.02,6.85-2.1,4.33,4.38,1.45-.03-3.81,3.95-1.35,2.94,1.63-.68,2.15,2.36.69,3.16-.66.56-2.4,1.25-.69,1.29,1.56.36-.18,2.79,1.24,2.88,5.72,1.54,20.06,4.48,16.29,12.29.12.32-.55.73.06.72,1.36,13.74-76.24,13.04-72.62,1.62l-.32.16v-1.06ZM48.38,16.36c-3.12-.96-23.1,3.97-13.49,6.75-.75,3.19,14.31,2.4,17.94,2.08,14.21-3.12,4.02-8.73-4.45-8.83ZM50.55,51.8c.08.04.85-.03,1.02,0l-.13-.16c4-.08,9.47-5.33,5.69-8.25-2.59.33-2.96-2.01-.59-2.88-2.99-.06-2.35-1.52-.76-3.14-2.36.98-2.45-2.14-1.02-3.41-5.78-2.73,4.59-4.96,3.19-7.83-4.03.05-18.33,2.36-24.97-.96-.96-1.62-1.46,4.86.41,3.88,2.33-.79,9.44.4,5.18,4.2,1.49-.05,6.32,1.08,1.81,3.27,2.62,2.42-.72,3.14-3.12,3.57.85.42.87,1.27.53,2.13-12.04,3.98.16,10.57,6.92,10.54-.09-.27,1.41,0,1.66-.27-2.07-.34-4.73-.16-5.35-1.01,3.03.4,6.92,1.29,9.55.32ZM30.54,25.09c-12.52,3.42-7.11,20.97,5.25,16.62.15-.04.6-.11.23-.27-.71-1.06-1.48-.04-2.4-.3-2.32-2.32,2.02-2.33,3.38-2.7.77.2,3.62-.58,1.09-.63-1.77-.64-4.87,2.06-5.51.18.03-2.95,8.52-1.5,7.06-3.34-2,.27-7.16-.65-7.95.97-1.87-4.27,6.49-.93,5.97-4.78-1.96-2.01-8.86,1.87-8.82-1.31.2-.22.72-.74.99-.3,1.08-.75.46-3.01.71-4.14ZM63.14,25.31c-1.25-.19-1.89.66-2.78.99-1.08,6.33,5.48.91,2.78-.99ZM58.43,29.14c-4.51.33-4.31,6.29-.21,2.34,4.45-1.88,2.07-.3.21-2.34ZM62.15,29.28c-.51.02-1.21.08-1.27.69.47-.11,1.13-.26,1.27-.69ZM62.77,31.48c-2.06.42-4.08,1.44-5.97,2.67.24-.02.28.07.25.29-2.34-.36-1.81,3,.3,1.28,1.24-.26,8.43-2.8,5.42-4.24ZM62.45,36.32c-.96-.25-8.34,2.09-5.32,3.01,1.72-.75,5.45-.66,5.32-3.01ZM63.53,39.79c-.4-.27-.66.25-.49.54.42.11.99-.29.49-.54ZM65.57,40c-.72-.24-1,.41-1.48.19-.28.13.06.73-.21.43-1.43-.3-2.67,1.84-4.03,2.3-.07,1.61-.64,3.63.26,4.98.58,1.32-3.14,2.05-2.42,2.67-6.76,3.83-16.58,5.18-23.53.64-6.59-5.91,1.96-5.42-8.65-9.55-8.04-4.93-27.47,9.76-9.65,11.52,9.56,8.88,95.18-.26,49.72-13.19ZM60.09,40.64c-.16-.1-.59-.15-.42.14-.75-.37-3.72,1.5-1.89,1.33.56.49,4.09-1.25,2.31-1.47ZM79.03,50.95c-9.73,5.32-21.31,6.87-32.55,7.29l.13-.16h-.38s.06.16.06.16c-1.11.26-1.5-.08-2.74,0l.06.16c-11.08.2-24.74-1.94-33.89-4.98,5.85,7.63,67.5,9.58,69.31-2.48Z"/><path class="cls-1" d="M4.04,39.09c-7.85,7.01,4.4,11.41-2.4,9.59-2.93-2.08-1.81-10.82,2.4-9.59Z"/><path class="cls-1" d="M87.23,46.17c7.9,4.03-4.77,15.55,1.29,6.05.09-1.28-.38-2.81-1.15-3.62.66-.18-.98-.45-1.13-.44-.96-1.07-.39-2.04.99-2Z"/><path class="cls-1" d="M85.32,48.94c4.03,2.43-4.63,12-4.95,7.45,6.71-.93,1.59-7.43,4.95-7.45Z"/><path class="cls-1" d="M7.22,38.3c1.27,2.16-4.82,2.51-1.53,6.94.64,1.96-2.19.13-2.15-1.01-.53-1.99.94-6.29,3.68-5.93Z"/><path class="cls-1" d="M31.69,36.59c.24.1.27.66-.05.57-.02-.18.11-.46-.19-.48.05-.09.15-.12.24-.09Z"/></svg>