<svg width="105" height="17" viewBox="0 0 105 17" fill="none" xmlns="http://www.w3.org/2000/svg">
<path d="M8.49984 1.41699L10.6886 5.85116L15.5832 6.56658L12.0415 10.0162L12.8773 14.8895L8.49984 12.5874L4.12234 14.8895L4.95817 10.0162L1.4165 6.56658L6.31109 5.85116L8.49984 1.41699Z" fill="#735E50"/>
<path d="M30.4998 1.41699L32.6886 5.85116L37.5832 6.56658L34.0415 10.0162L34.8773 14.8895L30.4998 12.5874L26.1223 14.8895L26.9582 10.0162L23.4165 6.56658L28.3111 5.85116L30.4998 1.41699Z" fill="#735E50"/>
<path d="M52.4998 1.41699L54.6886 5.85116L59.5832 6.56658L56.0415 10.0162L56.8773 14.8895L52.4998 12.5874L48.1223 14.8895L48.9582 10.0162L45.4165 6.56658L50.3111 5.85116L52.4998 1.41699Z" fill="#735E50"/>
<path d="M74.4998 1.41699L76.6886 5.85116L81.5832 6.56658L78.0415 10.0162L78.8773 14.8895L74.4998 12.5874L70.1223 14.8895L70.9582 10.0162L67.4165 6.56658L72.3111 5.85116L74.4998 1.41699Z" fill="#735E50"/>
</svg>
