<?xml version="1.0" encoding="UTF-8"?><svg id="Layer_1" xmlns="http://www.w3.org/2000/svg" width="135.19" height="113.15" viewBox="0 0 135.19 113.15"><defs><style>.cls-1{fill:#4a3d39;}</style></defs><path class="cls-1" d="M96.01,41.11c6.98,1.28,12.48,9.34,8.7,15.79l.21-.14c-2.67,5.83-9.7,8.97-14.41,12.09-2.24,6.99-8.15,10.58-13.48,14.74-21.08,7.4-36.3-14.25-26.92-31.65,1.1-1.78,3.27-3.15,5.11-3.61.07-1.09.41.07.84-.5,3.36-.67,5.97-3.34,8.99-3.21,5.99-2.29,16.52-1.95,22.08,2.17,1.28,1.61.39-6.15,8.87-5.68ZM95.37,42.8c-3.65-.21-6.62,1.65-6.48,5.56,4.21-6.23,14.22.01,11.9,6.71-2.09,5.32-9.06,8.4-9.29,11.36,11.92-3.19,20.01-20.96,3.86-23.63ZM49.36,54.78c.51.02,1.71-.22,1.48.71,7.92-8.11,22.29-11.95,32.14-5.08.4.65.84.34,1.45.7.57.29.34.07.63-.13,6.54-6.13-11.47-6.71-14.86-6.36-7.18,1.2-16.98,3.51-20.84,10.17ZM95.02,47.32c-9.62-1.06-.66,10.01-2.81,15.45,5.5-3.15,11.74-11.94,2.81-15.45ZM70.87,48.17c-5.26.08-10.88,1.92-15.27,4.71-13.17,11.27,24.87,3.1,28.28-.77-1.6.69-2.18-1.48-3.52-1.97-3.03-1.49-6.31-1.34-9.49-1.96ZM88.12,50.05c-6.72,6.62-30.53,14.52-37.94,6.77-7.57,22.34,19.7,37.18,36.67,16.95,3.57-7.1,6.69-16.02,1.48-23.23-.28,1-.27-.32-.21-.49Z"/><path class="cls-1" d="M117.35,71.59c.7,1.33-1.71.5-2.17,1.27-.87.2-2.23-.39-2.85.28.57.22,2.15-.35,2.23.29-.14.36-.7.39-.92.13-3.02-.09-6.82,0-9.53-.13-.72-.88.51-2.22,1.33-1.41,3.79.4,8.21.28,11.9-.43Z"/><path class="cls-1" d="M30.98,61.16c1.66,2.44-5.6,7.42-6.8,9.86-.83.07-.51-.97-.8-1.55,2.65-2.08,4.73-4.42,6.73-7.07.04-.41.21-1.23.87-1.24Z"/><path class="cls-1" d="M47.43,27.55c1.56.24,6.77,11.33,3.27,7.94-.47-.71-1.12-3.79-1.97-3.8v-.35c-.52.07-1.13-1.36-1.15-1.81-1.21-.28-1.89-2.11-.14-1.98Z"/><path class="cls-1" d="M92.9,82.06c1.29,5.14,11.39,6.96,5.25,7.16-2.38-1.38-4.4-4.13-6.72-5.85-.07-.24.17-.25.34-.29-.04-.63.44-1.07,1.12-1.03Z"/><path class="cls-1" d="M76.77,90.06c1.65,1.75,2.08,6.01,4.54,7.23.19.34-.46.57-.32.99.66-.12,1-.71,1.62-.78-3.09,3.61-4.2-3.02-5.81-4.81-.98-.97-1.52-2.06-.05-2.74,0,.03,0,.1.02.11Z"/><path class="cls-1" d="M39.76,77.73c-.01.48.39.68.19,1.11-2.66,2.21-3.72,8.05-7.18,8.28,1.18-1.58,2.33-3.02,3.53-4.57.98-1.61,1.68-3.98,3.46-4.82Z"/><path class="cls-1" d="M30.13,42.8c2.1,1.53,3.7,4.38,6.3,4.78.14.64-.33,1.06-.91.99.02,1.27-1.83-1.25-2.06-1.3-.79-.93-7.47-4.8-3.33-4.47Z"/><path class="cls-1" d="M62.72,93.45c.38,2.24-1.23,4.99-1,7.55-.4.5.23,1.17-.95,1.01-.23-.39-.78.09-1.24-.06,2.22-1.08.69-9.6,3.2-8.49Z"/><path class="cls-1" d="M116.34,33.76c.23.31.57.09.59.63.39.19-.03.11-.07.44-.18-.05-.58-.03-.57-.25-2.58.66-5.61,2.21-7.06,4.77-.21.44-.39,0-.85.03.29-2.96,5.25-5.32,7.96-5.62Z"/><path class="cls-1" d="M98.41,24.16c.89,1.69-.51,1.23-1.59,1.37-1.5.89-4.82,1.64-5.15,3.61-.28.27-.44.91-.81.34-1.78-1.79,5.97-5.46,7.54-5.32Z"/><path class="cls-1" d="M119.1,52.68c.26,1.39-6.61,1.93-7.67,3.55-3.89-1.12,7.2-4.19,7.67-3.55Z"/><path class="cls-1" d="M78.8,23.29c-.66,1-3.67,13.17-3.67,7.33,1.4-1.64,1.4-7.98,3.67-7.33Z"/><path class="cls-1" d="M37.78,42.07c-.16.28-.89.6-.78.07,0,0,.78-.07.78-.07Z"/></svg>