<?xml version="1.0" encoding="UTF-8"?><svg id="Layer_1" xmlns="http://www.w3.org/2000/svg" width="126.91" height="116.03" viewBox="0 0 126.91 116.03"><defs><style>.cls-1{fill:#4a3d39;}</style></defs><path class="cls-1" d="M75.67,36.22c-1.27.89-3.28,2.23-3.9,3.86-.15.32-.04.44-.52.44-1.27-.11-2.2,1.21-3.61.76-1.22-.01-2.6-3.74-3.01-2.09-.48,1.54-1.01,3.5-1.15,5.08,3.1,1.05,7.62,2.88,7.32,6.64,2.68,11.22,3.36,23.45,3.98,34.89-1.15,4.08-10.86,5.91-14.9,6.84-5.48,1.37-11.09-1.27-15.89-3.4-1.2-1.26-3.45.37-3.52-2.61-.31-6.79-1.15-13.68-1.69-20.6.18-5.83-1.59-11.3-1.17-16.87,5.67-4.6,13.61-5.53,20.59-5.69,3.46.96,1.53-4.85,3.33-6.63.05-.16.19-.42,0-.43-1.95-.13-1.06-3.81-1.6-5.3.34-4.31,1.28-12.55,6.92-12.28,2.13.14,4.81-1.72,7.34-1.08-2.5-3.23-3.39-9.24,2.16-9.77,5.76-.12,12.07,2.81,15.49,8.03.28.32-.09.94.65.41,1.31-.04,2.83-.63,3.9.11,2.74,1.16,6.35,18.67.95,17.88M77.53,17.19c-.51.99-1.7-.14-1.91-.73.27-2.01-3.16-5.24,1.36-5.31,4.11-.9,10.63,1.52,13.08,4.9-2.31-3.18-7.04-5.69-11.12-5.63l.24-.18c-.54-.04-1.52.31-1.89-.16-4.78.18-3.99,5.33-1.19,7.71,3.97-.26,7.69-.91,11.81-.72,1.79-.04-.44-1.08-.92-1.46s-.67-.36-1.51-.82c-1.18-.64-2.99-1.22-4.18-1.47-2.78-1.51-6.81-1.2-3.89,2.74M90.24,16.05c-.64.11-.03,1.25.35.44-.08-.52-.38-.32-.29.1h-.18c.01-.12-.06-.5.12-.54ZM95.3,17.64c-8.65.12-17.36.37-25.84,2.1,2.73,4.97,4.68,11.64,2.54,17.1,1.48-.44,1.65-2.36,3.95-2.17.24-.55,1.25-.03,1.74-.25.26-.23.96-.52,1.16-.23,6.4-.44,12.32-2.2,18.88-1.7v.3c2.32-2.09.28-14.66-2.43-15.14ZM65.71,20.28c-4.67,2.65-4.67,10.69-3.77,15.22,1.42-1.74,3.3-2.83,4.14.05.48,1.18-1.47.01.36,2.52,8.11,4.99,5.75-17.99-.73-17.79ZM62.1,41.66c-.18.77-1.13,1.64-.57,2.24,1.5.56.93-3.48,1.41-4.15.06-1.17.53-1.92.59-3.08.51-.5.91-.16.5-1.16-1.89,1.48-1.32,4.26-1.93,6.16M68.98,39.61l-1.45-.12c.06.58,1.43.54,1.45.12ZM41.77,53.2c-.59-2.57,1.21-1.05,2.06-.14-.11-8.06,10.77-2.62,14.76-.67-.21-2.26.44-4.47.95-6.76-4.52-.94-21.1.82-20.91,6.62,1.97,10.46,1.29,21.74,3.33,32.08,1.71,5.53,8.84,6.62,13.59,7.58-.04-.17.15-.16.15,0,4.57-.6,17.58-1.77,17.67-8.09-1.64-10.31-.1-25.34-5.28-35.17-1.03-1.5-3.18-1.55-4.77-2.11-.34.54-.08,2.14-.16,2.86-.1.93.13,1.49.12,2.37-.02,1.75.89-.4,1.18-.69.23-.01,1.22-.18,1.15.61-.06.75-.05,1.13-.59,1.83-.94,1.23-.41,1.43-3.01,2.74-2.51,1.27-5.56,2.93-8.95,2.06s-6.87-1.94-10.01-3.73M60.99,45.67c-.47,1.77-1.51,6.58.62,7.83.61-2.43,0-5.06.43-7.34M49.15,50.02c-2.65-.17-5.08,1.53-3.26,4.21,4.46,1.51,10.13,3.31,13.69.48-2.62,2.08-6.95-3.73-10.43-4.69ZM42.37,86.51c-.48-.2.21.82.57.7-.09-.34-.34-.4-.57-.7Z"/></svg>