<?xml version="1.0" encoding="UTF-8"?><svg id="Layer_1" xmlns="http://www.w3.org/2000/svg" width="96.25" height="107.52" viewBox="0 0 96.25 107.52"><defs><style>.cls-1{fill:#4a3d39;}.cls-2{fill:#fff;}</style></defs><path class="cls-1" d="M83.61,82.61c-6.02-25.67,5.17-48.94-31.17-49.18-6.71-.24-9.62,2.96-8.95-6.22.23-6.44-3.4-6.85-8.54-5.61l-.12-.16c-.4.64-1.68.18-1.91,1.16-2.48.32-1.05,1.74-.86,3.17,3.74,15.64-10.54,8.05-19.51,17.36-.65,9.21,1.5,20.87,2.09,29.89.04.4.11,1.52-.24.63-3.4,29.62,36.36,25.16,54.58,18.61,4.9-2.85,11.66-4.68,14.63-9.66ZM77.26,50.89c-.12.76.58.46-.31,1.13-.1.49.01,1.23-.47,1.44.41-1.97.35-4.54,1.42-6.55-.09,1.5-.26,2.7-.64,3.98ZM42.25,28.69c.06,3.13.46,7.59.55,10.63-1.21.65,1.07,3.93-.87,4.31-2.45-2.86-.53,1.56-1.25,2.61-1.22-4.87-1.22-2.97-5.32-3.83-.34-.19-1.91-.61-.67-.93-.72-1.3-.71-3.11-.66-4.57-1.59-11.06.57-3.34,3.33-7.49,1.72-4.33.91,1.05,4.88-.72ZM33.27,24.54c1.73-1.8,6-2.59,7.99-1.37.42,1.9,1.84,5.87-1.83,3.45-.4-1.44-2.94-.94-2.71.67-.81,4.21-4.09-.28-3.45-2.75ZM17.49,40.2c2.44-1.45-2.03,2.1-3.01,2.06.82-.93,1.89-1.55,3.01-2.06ZM14.02,44.26c11.76-9.82,30.49-8.57,6.97,2.66-7.99-3.08-2.36,1.92,1.82,1.64,12.3,3.42,26.01,3.46,38.55.39,2.39-.16,14.89-4.17,10.87-5.53-14.71,7.97-33.06,6.85-49.06,4.04,3.78-4.9,10.16-3.84,15.27-3.47.74.79.58,3.27,1.19,3.78.86.76.95.37,1.42-.47.66,1.31,1.11-2.13,1.41-2.67,3.66-2.41,1.05-1.86,1.75-4.47,7.59-1.22,15.81,1.55,22.97,4.29.03-.5-.09-.77-.62-.8.07-1-.36-1.02-.95-1.41-1.37.18-4.22-2.03-5.57-1.74-4.21-2.84-17.17,1.03-16.31-4.98,7.11-1.54,32.46.13,33.87,9.65-2.93,7.97-6.3,19.49-15.54,22.45-2.76.29-8.92,4.57-8.23-.93-1.97-.33-4.79.24-6.83.61-2.05-.03-10.32-1.7-9.63,1.3.73,5.6-20.3-9.83-20.03-14.71-.75.36-.61-2.61-1.73-3.41-.82-1.45-3.28-4.92-1.57-6.26ZM76.13,54.53c-.47.24,0,1-.76.9-.06-.52,1.31-3.03.76-.9ZM52.66,70.65c1.1,1.97-12.26.85-13.65,1.58-.74-5.1,1.8-3.13,5.33-3.31,2.39-.46,4.88-.07,7.35-.45.32.5.55-.26.82.02.03.52.4,1.82.15,2.16ZM16.53,52.83c-.29-.25-.63-.79-.63-1.18.28.22.52.8.63,1.18ZM81.91,82.85c-15.21,12.72-52.88,21.58-65.36,1.76-.29-10.57-2.17-20.98-2.33-31.66.06-.64-1.12-3.2-.45-3.13,3.1,10.62,13.56,18.82,23,21.77,1.35.28.09,3.38,2.41,2.68,4.85-2.3,12.48,1.51,15.88-3.09,11.08-.68,20.97-11.32,23.14-22.07,1.54,11.06,2.36,22.57,3.7,33.74Z"/><path class="cls-2" d="M16.22,51.71c.22.03.37.72.45.89-.29-.25-.63-.79-.63-1.18.15.03.12.19.18.29Z"/></svg>