<?xml version="1.0" encoding="UTF-8"?><svg id="Layer_1" xmlns="http://www.w3.org/2000/svg" width="173.85" height="161.34" viewBox="0 0 173.85 161.34"><defs><style>.cls-1{fill:none;stroke:#988476;stroke-miterlimit:10;}.cls-2{fill:#4f3d30;}.cls-3{fill:#988476;}</style></defs><path class="cls-1" d="M115.24,154.64c37.18-15.53,55-58.91,39.47-96.1C139.17,21.36,95.79,3.55,58.61,19.08,21.43,34.61,3.61,77.99,19.14,115.18c7.28,17.43,21.01,31.39,38.3,38.97"/><path class="cls-3" d="M83.62,130.84c2.92-1.97,6.25-5.08,3-8.21h13.95c-4.16,3.91,2.01,5.73,3.9,8.79,2.95,4.79.39,11.67-.95,16.8-.56,2.15-1.69,8.87-2.57,10.31-.37.61-.45.46-1.21.47-2.81.04-7.32.22-10.14.22-1.65,0-5.14.59-4.4-1.16s.76-3.21.87-4.77c.16-2.41-1.13-5.89-2.68-7.78-1.4-1.71-3.83-2.34-4.21-4.75-.64-4.04,1.48-7.44,4.44-9.93"/><path class="cls-3" d="M77.74,135.44c.4.06.61.53.37.86-3.82,5.35,2.29,6.81,4.76,10.25,2.8,3.9,2.64,8.02.98,12.26-.08.21-.29.35-.52.35l-16.42.05c-.13,0-.26-.03-.36-.12-1.3-1.19-1.53-6.82-1.34-8.36.68-5.54,5.58-4.61,8.23-8.31,1.39-1.94,1.92-4.32,1.34-6.62-.09-.37.89-.66,1.27-.6l1.69.24Z"/><path class="cls-2" d="M49.56,76.5h.22c.15.72.34,1.33.57,1.82.23.49.49.9.77,1.22s.57.57.88.74c.31.17.62.3.93.38.31.08.61.13.9.14.29.01.56.02.81.02.71,0,1.29-.11,1.74-.32.45-.21.81-.48,1.08-.81.27-.33.45-.68.56-1.06.11-.38.16-.73.16-1.05,0-.47-.09-.87-.26-1.2-.17-.33-.39-.62-.66-.85-.27-.23-.56-.42-.87-.57-.31-.15-.61-.26-.89-.34l-2.3-.7c-1.08-.33-1.9-.77-2.45-1.32-.55-.55-.83-1.28-.83-2.2,0-.6.11-1.16.32-1.67.21-.51.51-.96.9-1.33s.85-.67,1.39-.88c.54-.21,1.13-.32,1.77-.32.47,0,.86.04,1.17.12.31.08.58.17.81.27.23.1.43.19.61.27.18.08.36.12.55.12.17,0,.29-.02.35-.07.06-.05.14-.16.25-.35h.28v3.62h-.24c-.08-.48-.22-.94-.41-1.39-.19-.45-.44-.84-.75-1.18s-.68-.61-1.11-.82c-.43-.21-.94-.31-1.51-.31-.32,0-.67.04-1.06.13s-.75.24-1.08.45c-.33.21-.61.49-.83.84-.22.35-.33.79-.33,1.32,0,.43.09.79.26,1.09.17.3.4.55.67.76.27.21.58.38.92.52.34.14.68.26,1.03.37l2.42.76c.25.08.57.19.96.32.39.13.76.33,1.13.6.37.27.68.62.94,1.06.26.44.39,1,.39,1.68,0,.63-.12,1.22-.35,1.79-.23.57-.57,1.07-1.01,1.5-.44.43-.97.78-1.6,1.04-.63.26-1.33.39-2.12.39-.28,0-.53,0-.74,0-.21,0-.41-.02-.6-.05-.19-.03-.37-.06-.56-.09s-.39-.08-.62-.15c-.27-.08-.55-.17-.86-.28-.31-.11-.57-.16-.8-.16-.2,0-.34.04-.41.12-.07.08-.14.19-.19.32h-.3v-4.3Z"/><path class="cls-2" d="M62.06,80.52h2.22v-13.68h-2.22v-.28h6.44v.28h-2.22v13.68h2.22v.28h-6.44v-.28Z"/><path class="cls-2" d="M69.76,80.52h2.22v-13.68h-2.22v-.28h3.72c.19,0,.37,0,.56,0,.19,0,.37-.02.56-.03.19,0,.37,0,.56-.01.19,0,.37,0,.56,0,.4,0,.76,0,1.07.02.31.01.61.04.88.07s.53.08.78.14c.25.06.51.14.79.23.81.27,1.52.62,2.11,1.07.59.45,1.08.96,1.46,1.55s.66,1.23.84,1.92c.18.69.27,1.42.27,2.18,0,.88-.11,1.67-.32,2.37-.21.7-.51,1.32-.88,1.86s-.81,1.01-1.31,1.4c-.5.39-1.04.71-1.61.95-.32.15-.62.26-.91.34-.29.08-.58.14-.88.18s-.63.07-.99.08c-.36.01-.77.02-1.24.02-.2,0-.41,0-.64,0s-.45-.02-.68-.03-.45-.02-.67-.03-.43,0-.63,0h-3.4v-.28ZM73.98,80.52c.23.03.49.05.79.06.3.01.63.02.99.02.45,0,.9-.02,1.35-.07.45-.05.87-.15,1.28-.3.41-.15.79-.37,1.14-.66.35-.29.67-.66.95-1.13.43-.72.72-1.46.89-2.21.17-.75.25-1.58.25-2.47,0-1.05-.1-2.01-.3-2.87-.2-.86-.53-1.59-.99-2.2-.46-.61-1.07-1.08-1.83-1.41s-1.7-.5-2.82-.5c-.33,0-.64,0-.91.02-.27.01-.54.03-.79.04v13.68Z"/><path class="cls-2" d="M86.96,76.5h.22c.15.72.34,1.33.57,1.82.23.49.49.9.77,1.22s.57.57.88.74c.31.17.62.3.93.38.31.08.61.13.9.14.29.01.56.02.81.02.71,0,1.29-.11,1.74-.32.45-.21.81-.48,1.08-.81.27-.33.45-.68.56-1.06.11-.38.16-.73.16-1.05,0-.47-.09-.87-.26-1.2-.17-.33-.39-.62-.66-.85-.27-.23-.56-.42-.87-.57-.31-.15-.61-.26-.89-.34l-2.3-.7c-1.08-.33-1.9-.77-2.45-1.32-.55-.55-.83-1.28-.83-2.2,0-.6.11-1.16.32-1.67.21-.51.51-.96.9-1.33s.85-.67,1.39-.88c.54-.21,1.13-.32,1.77-.32.47,0,.86.04,1.17.12.31.08.58.17.81.27.23.1.43.19.61.27.18.08.36.12.55.12.17,0,.29-.02.35-.07.06-.05.14-.16.25-.35h.28v3.62h-.24c-.08-.48-.22-.94-.41-1.39-.19-.45-.44-.84-.75-1.18s-.68-.61-1.11-.82c-.43-.21-.94-.31-1.51-.31-.32,0-.67.04-1.06.13s-.75.24-1.08.45c-.33.21-.61.49-.83.84-.22.35-.33.79-.33,1.32,0,.43.09.79.26,1.09.17.3.4.55.67.76.27.21.58.38.92.52.34.14.68.26,1.03.37l2.42.76c.25.08.57.19.96.32.39.13.76.33,1.13.6.37.27.68.62.94,1.06.26.44.39,1,.39,1.68,0,.63-.12,1.22-.35,1.79-.23.57-.57,1.07-1.01,1.5-.44.43-.97.78-1.6,1.04-.63.26-1.33.39-2.12.39-.28,0-.53,0-.74,0-.21,0-.41-.02-.6-.05-.19-.03-.37-.06-.56-.09s-.39-.08-.62-.15c-.27-.08-.55-.17-.86-.28-.31-.11-.57-.16-.8-.16-.2,0-.34.04-.41.12-.07.08-.14.19-.19.32h-.3v-4.3Z"/><path class="cls-2" d="M99.4,80.52h2.22v-13.68h-2.22v-.28h11.44v3.46h-.22c-.17-.52-.36-.98-.56-1.37s-.44-.73-.72-1c-.28-.27-.61-.48-1-.61-.39-.13-.85-.2-1.4-.2h-3.32v6.18h1.3c.44,0,.81-.04,1.12-.12.31-.08.57-.23.79-.45.22-.22.41-.52.56-.9s.3-.87.45-1.47h.22v6.22h-.22c-.09-.39-.19-.76-.29-1.12-.1-.36-.24-.68-.42-.96-.18-.28-.42-.5-.72-.67-.3-.17-.69-.25-1.17-.25h-1.62v7.22h3.78c.73,0,1.34-.16,1.83-.47.49-.31.88-.69,1.19-1.12.31-.43.53-.88.68-1.35s.24-.85.28-1.16h.22v4.38h-12.2v-.28Z"/><path class="cls-2" d="M114.38,76.5h.22c.15.72.34,1.33.57,1.82s.49.9.77,1.22c.28.32.57.57.88.74.31.17.62.3.93.38s.61.13.9.14c.29.01.56.02.81.02.71,0,1.29-.11,1.74-.32.45-.21.81-.48,1.08-.81.27-.33.45-.68.56-1.06s.16-.73.16-1.05c0-.47-.09-.87-.26-1.2-.17-.33-.39-.62-.66-.85s-.56-.42-.87-.57-.61-.26-.89-.34l-2.3-.7c-1.08-.33-1.9-.77-2.45-1.32-.55-.55-.83-1.28-.83-2.2,0-.6.11-1.16.32-1.67.21-.51.51-.96.9-1.33s.85-.67,1.39-.88c.54-.21,1.13-.32,1.77-.32.47,0,.86.04,1.17.12s.58.17.81.27c.23.1.43.19.61.27s.36.12.55.12c.17,0,.29-.02.35-.07.06-.05.14-.16.25-.35h.28v3.62h-.24c-.08-.48-.22-.94-.41-1.39-.19-.45-.44-.84-.75-1.18s-.68-.61-1.11-.82-.94-.31-1.51-.31c-.32,0-.67.04-1.06.13-.39.09-.75.24-1.08.45-.33.21-.61.49-.83.84-.22.35-.33.79-.33,1.32,0,.43.09.79.26,1.09.17.3.4.55.67.76s.58.38.92.52c.34.14.68.26,1.03.37l2.42.76c.25.08.57.19.96.32.39.13.76.33,1.13.6.37.27.68.62.94,1.06.26.44.39,1,.39,1.68,0,.63-.12,1.22-.35,1.79-.23.57-.57,1.07-1.01,1.5-.44.43-.97.78-1.6,1.04s-1.33.39-2.12.39c-.28,0-.53,0-.74,0-.21,0-.41-.02-.6-.05-.19-.03-.37-.06-.56-.09-.19-.03-.39-.08-.62-.15-.27-.08-.55-.17-.86-.28-.31-.11-.57-.16-.8-.16-.2,0-.34.04-.41.12-.07.08-.14.19-.19.32h-.3v-4.3Z"/><path class="cls-2" d="M41.45,104.52h2.22v-13.68h-2.22v-.28h6.28v.28h-2.06v6.36h.2l6.04-6.36h-2.08v-.28h4.14v.28h-1.66l-5.08,5.38,7.26,8.3h1.32v.28h-5.78v-.28h1.8l-6-7.04h-.16v7.04h2.06v.28h-6.28v-.28Z"/><path class="cls-2" d="M56.27,104.52h2.22v-13.68h-2.22v-.28h11.44v3.46h-.22c-.17-.52-.36-.98-.56-1.37-.2-.39-.44-.73-.72-1s-.61-.48-1-.61c-.39-.13-.85-.2-1.4-.2h-3.32v6.18h1.3c.44,0,.81-.04,1.12-.12s.57-.23.79-.45.41-.52.56-.9.3-.87.45-1.47h.22v6.22h-.22c-.09-.39-.19-.76-.29-1.12-.1-.36-.24-.68-.42-.96-.18-.28-.42-.5-.72-.67-.3-.17-.69-.25-1.17-.25h-1.62v7.22h3.78c.73,0,1.34-.16,1.83-.47.49-.31.88-.69,1.19-1.12.31-.43.53-.88.68-1.35.15-.47.24-.85.28-1.16h.22v4.38h-12.2v-.28Z"/><path class="cls-2" d="M70.35,104.52h2.22v-13.68h-2.22v-.28h3.8c.16,0,.32,0,.48,0,.16,0,.32-.02.48-.03.16,0,.32,0,.48-.01.16,0,.32,0,.48,0,.79,0,1.48.04,2.08.13.6.09,1.16.34,1.68.75.47.36.8.77.99,1.22.19.45.29.88.29,1.28,0,.2-.04.46-.11.77s-.23.63-.48.96c-.25.33-.6.63-1.07.9-.47.27-1.09.46-1.86.55v.04c.21.03.5.08.87.15.37.07.74.2,1.12.37.38.17.73.4,1.05.69.32.29.55.66.68,1.11.08.27.14.57.17.91s.06.69.08,1.05c.02.36.04.71.06,1.04.02.33.06.61.11.84.08.35.21.66.38.94.17.28.45.42.84.42.17,0,.35-.03.54-.1.19-.07.35-.17.5-.32l.18.22c-.07.05-.14.11-.23.17-.09.06-.2.12-.33.17-.13.05-.3.1-.49.13s-.43.05-.71.05c-.53,0-.98-.07-1.33-.2-.35-.13-.64-.33-.85-.59-.21-.26-.37-.58-.47-.96-.1-.38-.17-.82-.21-1.33l-.14-1.82c-.05-.67-.19-1.19-.4-1.56-.21-.37-.46-.65-.75-.82-.29-.17-.58-.28-.89-.31-.31-.03-.57-.05-.8-.05h-2v7.22h2.22v.28h-6.44v-.28ZM74.57,97.02h1.84c.37,0,.71-.05,1.02-.14.31-.09.57-.26.79-.49.22-.23.39-.55.51-.95.12-.4.18-.91.18-1.52,0-.69-.09-1.25-.27-1.67-.18-.42-.41-.74-.7-.95-.29-.21-.61-.35-.96-.42-.35-.07-.7-.1-1.05-.1-.24,0-.48,0-.73,0s-.46.02-.63.05v6.18Z"/><path class="cls-2" d="M84.17,104.52h1.76l5.4-14.32h.48l5.44,14.32h1.78v.28h-6.16v-.28h2.22l-2.1-5.56h-4.64l-2.1,5.56h2.22v.28h-4.3v-.28ZM90.67,92.86l-2.2,5.82h4.4l-2.2-5.82Z"/><path class="cls-2" d="M99.53,104.52h2.22v-13.68h-2.22v-.28h4.5l3.7,10.76h.04l3.7-10.76h4.42v.28h-2.22v13.68h2.22v.28h-6.44v-.28h2.22v-13.56h-.04l-4.78,13.86-4.76-13.72h-.04v13.42h2.22v.28h-4.74v-.28Z"/><path class="cls-2" d="M117.07,104.52h2.22v-13.68h-2.22v-.28h6.44v.28h-2.22v13.68h2.22v.28h-6.44v-.28Z"/><path class="cls-2" d="M124.77,104.52h2.22v-13.68h-2.22v-.28h6.28v.28h-2.06v6.36h.2l6.04-6.36h-2.08v-.28h4.14v.28h-1.66l-5.08,5.38,7.26,8.3h1.32v.28h-5.78v-.28h1.8l-6-7.04h-.16v7.04h2.06v.28h-6.28v-.28Z"/></svg>