<svg width="69" height="26" viewBox="0 0 69 26" fill="none" xmlns="http://www.w3.org/2000/svg">
<path d="M7 16.4792L10.0417 15.7083L11.3125 19.625L7 16.4792ZM14 11.4167H8.64583L7 6.375L5.35417 11.4167H0L4.33334 14.5417L2.6875 19.5833L7.02083 16.4583L9.6875 14.5417L14 11.4167Z" fill="#219653"/>
<path d="M22.1426 8.46875V17H21.0293V8.46875H22.1426ZM24.8848 8.46875V9.39453H18.293V8.46875H24.8848ZM26.625 11.6562V17H25.541V10.6602H26.5957L26.625 11.6562ZM28.6055 10.625L28.5996 11.6328C28.5098 11.6133 28.4238 11.6016 28.3418 11.5977C28.2637 11.5898 28.1738 11.5859 28.0723 11.5859C27.8223 11.5859 27.6016 11.625 27.4102 11.7031C27.2188 11.7812 27.0566 11.8906 26.9238 12.0312C26.791 12.1719 26.6855 12.3398 26.6074 12.5352C26.5332 12.7266 26.4844 12.9375 26.4609 13.168L26.1562 13.3438C26.1562 12.9609 26.1934 12.6016 26.2676 12.2656C26.3457 11.9297 26.4648 11.6328 26.625 11.375C26.7852 11.1133 26.9883 10.9102 27.2344 10.7656C27.4844 10.6172 27.7812 10.543 28.125 10.543C28.2031 10.543 28.293 10.5527 28.3945 10.5723C28.4961 10.5879 28.5664 10.6055 28.6055 10.625ZM33.4863 15.5352V10.6602H34.5762V17H33.5391L33.4863 15.5352ZM33.6914 14.1992L34.1426 14.1875C34.1426 14.6094 34.0977 15 34.0078 15.3594C33.9219 15.7148 33.7812 16.0234 33.5859 16.2852C33.3906 16.5469 33.1348 16.752 32.8184 16.9004C32.502 17.0449 32.1172 17.1172 31.6641 17.1172C31.3555 17.1172 31.0723 17.0723 30.8145 16.9824C30.5605 16.8926 30.3418 16.7539 30.1582 16.5664C29.9746 16.3789 29.832 16.1348 29.7305 15.834C29.6328 15.5332 29.584 15.1719 29.584 14.75V10.6602H30.668V14.7617C30.668 15.0469 30.6992 15.2832 30.7617 15.4707C30.8281 15.6543 30.916 15.8008 31.0254 15.9102C31.1387 16.0156 31.2637 16.0898 31.4004 16.1328C31.541 16.1758 31.6855 16.1973 31.834 16.1973C32.2949 16.1973 32.6602 16.1094 32.9297 15.9336C33.1992 15.7539 33.3926 15.5137 33.5098 15.2129C33.6309 14.9082 33.6914 14.5703 33.6914 14.1992ZM39.9199 15.3184C39.9199 15.1621 39.8848 15.0176 39.8145 14.8848C39.748 14.748 39.6094 14.625 39.3984 14.5156C39.1914 14.4023 38.8789 14.3047 38.4609 14.2227C38.1094 14.1484 37.791 14.0605 37.5059 13.959C37.2246 13.8574 36.9844 13.7344 36.7852 13.5898C36.5898 13.4453 36.4395 13.2754 36.334 13.0801C36.2285 12.8848 36.1758 12.6562 36.1758 12.3945C36.1758 12.1445 36.2305 11.9082 36.3398 11.6855C36.4531 11.4629 36.6113 11.2656 36.8145 11.0938C37.0215 10.9219 37.2695 10.7871 37.5586 10.6895C37.8477 10.5918 38.1699 10.543 38.5254 10.543C39.0332 10.543 39.4668 10.6328 39.8262 10.8125C40.1855 10.9922 40.4609 11.2324 40.6523 11.5332C40.8438 11.8301 40.9395 12.1602 40.9395 12.5234H39.8555C39.8555 12.3477 39.8027 12.1777 39.6973 12.0137C39.5957 11.8457 39.4453 11.707 39.2461 11.5977C39.0508 11.4883 38.8105 11.4336 38.5254 11.4336C38.2246 11.4336 37.9805 11.4805 37.793 11.5742C37.6094 11.6641 37.4746 11.7793 37.3887 11.9199C37.3066 12.0605 37.2656 12.209 37.2656 12.3652C37.2656 12.4824 37.2852 12.5879 37.3242 12.6816C37.3672 12.7715 37.4414 12.8555 37.5469 12.9336C37.6523 13.0078 37.8008 13.0781 37.9922 13.1445C38.1836 13.2109 38.4277 13.2773 38.7246 13.3438C39.2441 13.4609 39.6719 13.6016 40.0078 13.7656C40.3438 13.9297 40.5938 14.1309 40.7578 14.3691C40.9219 14.6074 41.0039 14.8965 41.0039 15.2363C41.0039 15.5137 40.9453 15.7676 40.8281 15.998C40.7148 16.2285 40.5488 16.4277 40.3301 16.5957C40.1152 16.7598 39.8574 16.8887 39.5566 16.9824C39.2598 17.0723 38.9258 17.1172 38.5547 17.1172C37.9961 17.1172 37.5234 17.0176 37.1367 16.8184C36.75 16.6191 36.457 16.3613 36.2578 16.0449C36.0586 15.7285 35.959 15.3945 35.959 15.043H37.0488C37.0645 15.3398 37.1504 15.5762 37.3066 15.752C37.4629 15.9238 37.6543 16.0469 37.8809 16.1211C38.1074 16.1914 38.332 16.2266 38.5547 16.2266C38.8516 16.2266 39.0996 16.1875 39.2988 16.1094C39.502 16.0312 39.6562 15.9238 39.7617 15.7871C39.8672 15.6504 39.9199 15.4941 39.9199 15.3184ZM45.082 10.6602V11.4922H41.6543V10.6602H45.082ZM42.8145 9.11914H43.8984V15.4297C43.8984 15.6445 43.9316 15.8066 43.998 15.916C44.0645 16.0254 44.1504 16.0977 44.2559 16.1328C44.3613 16.168 44.4746 16.1855 44.5957 16.1855C44.6855 16.1855 44.7793 16.1777 44.877 16.1621C44.9785 16.1426 45.0547 16.127 45.1055 16.1152L45.1113 17C45.0254 17.0273 44.9121 17.0527 44.7715 17.0762C44.6348 17.1035 44.4688 17.1172 44.2734 17.1172C44.0078 17.1172 43.7637 17.0645 43.541 16.959C43.3184 16.8535 43.1406 16.6777 43.0078 16.4316C42.8789 16.1816 42.8145 15.8457 42.8145 15.4238V9.11914ZM47.4375 11.8789V19.4375H46.3477V10.6602H47.3438L47.4375 11.8789ZM51.709 13.7773V13.9004C51.709 14.3613 51.6543 14.7891 51.5449 15.1836C51.4355 15.5742 51.2754 15.9141 51.0645 16.2031C50.8574 16.4922 50.6016 16.7168 50.2969 16.877C49.9922 17.0371 49.6426 17.1172 49.248 17.1172C48.8457 17.1172 48.4902 17.0508 48.1816 16.918C47.873 16.7852 47.6113 16.5918 47.3965 16.3379C47.1816 16.084 47.0098 15.7793 46.8809 15.4238C46.7559 15.0684 46.6699 14.668 46.623 14.2227V13.5664C46.6699 13.0977 46.7578 12.6777 46.8867 12.3066C47.0156 11.9355 47.1855 11.6191 47.3965 11.3574C47.6113 11.0918 47.8711 10.8906 48.1758 10.7539C48.4805 10.6133 48.832 10.543 49.2305 10.543C49.6289 10.543 49.9824 10.6211 50.291 10.7773C50.5996 10.9297 50.8594 11.1484 51.0703 11.4336C51.2812 11.7188 51.4395 12.0605 51.5449 12.459C51.6543 12.8535 51.709 13.293 51.709 13.7773ZM50.6191 13.9004V13.7773C50.6191 13.4609 50.5859 13.1641 50.5195 12.8867C50.4531 12.6055 50.3496 12.3594 50.209 12.1484C50.0723 11.9336 49.8965 11.7656 49.6816 11.6445C49.4668 11.5195 49.2109 11.457 48.9141 11.457C48.6406 11.457 48.4023 11.5039 48.1992 11.5977C48 11.6914 47.8301 11.8184 47.6895 11.9785C47.5488 12.1348 47.4336 12.3145 47.3438 12.5176C47.2578 12.7168 47.1934 12.9238 47.1504 13.1387V14.6562C47.2285 14.9297 47.3379 15.1875 47.4785 15.4297C47.6191 15.668 47.8066 15.8613 48.041 16.0098C48.2754 16.1543 48.5703 16.2266 48.9258 16.2266C49.2188 16.2266 49.4707 16.166 49.6816 16.0449C49.8965 15.9199 50.0723 15.75 50.209 15.5352C50.3496 15.3203 50.4531 15.0742 50.5195 14.7969C50.5859 14.5156 50.6191 14.2168 50.6191 13.9004ZM54.2695 10.6602V17H53.1797V10.6602H54.2695ZM53.0977 8.97852C53.0977 8.80273 53.1504 8.6543 53.2559 8.5332C53.3652 8.41211 53.5254 8.35156 53.7363 8.35156C53.9434 8.35156 54.1016 8.41211 54.2109 8.5332C54.3242 8.6543 54.3809 8.80273 54.3809 8.97852C54.3809 9.14648 54.3242 9.29102 54.2109 9.41211C54.1016 9.5293 53.9434 9.58789 53.7363 9.58789C53.5254 9.58789 53.3652 9.5293 53.2559 9.41211C53.1504 9.29102 53.0977 9.14648 53.0977 8.97852ZM57.1875 8V17H56.0977V8H57.1875ZM58.6406 13.9004V13.7656C58.6406 13.3086 58.707 12.8848 58.8398 12.4941C58.9727 12.0996 59.1641 11.7578 59.4141 11.4688C59.6641 11.1758 59.9668 10.9492 60.3223 10.7891C60.6777 10.625 61.0762 10.543 61.5176 10.543C61.9629 10.543 62.3633 10.625 62.7188 10.7891C63.0781 10.9492 63.3828 11.1758 63.6328 11.4688C63.8867 11.7578 64.0801 12.0996 64.2129 12.4941C64.3457 12.8848 64.4121 13.3086 64.4121 13.7656V13.9004C64.4121 14.3574 64.3457 14.7812 64.2129 15.1719C64.0801 15.5625 63.8867 15.9043 63.6328 16.1973C63.3828 16.4863 63.0801 16.7129 62.7246 16.877C62.373 17.0371 61.9746 17.1172 61.5293 17.1172C61.084 17.1172 60.6836 17.0371 60.3281 16.877C59.9727 16.7129 59.668 16.4863 59.4141 16.1973C59.1641 15.9043 58.9727 15.5625 58.8398 15.1719C58.707 14.7812 58.6406 14.3574 58.6406 13.9004ZM59.7246 13.7656V13.9004C59.7246 14.2168 59.7617 14.5156 59.8359 14.7969C59.9102 15.0742 60.0215 15.3203 60.1699 15.5352C60.3223 15.75 60.5117 15.9199 60.7383 16.0449C60.9648 16.166 61.2285 16.2266 61.5293 16.2266C61.8262 16.2266 62.0859 16.166 62.3086 16.0449C62.5352 15.9199 62.7227 15.75 62.8711 15.5352C63.0195 15.3203 63.1309 15.0742 63.2051 14.7969C63.2832 14.5156 63.3223 14.2168 63.3223 13.9004V13.7656C63.3223 13.4531 63.2832 13.1582 63.2051 12.8809C63.1309 12.5996 63.0176 12.3516 62.8652 12.1367C62.7168 11.918 62.5293 11.7461 62.3027 11.6211C62.0801 11.4961 61.8184 11.4336 61.5176 11.4336C61.2207 11.4336 60.959 11.4961 60.7324 11.6211C60.5098 11.7461 60.3223 11.918 60.1699 12.1367C60.0215 12.3516 59.9102 12.5996 59.8359 12.8809C59.7617 13.1582 59.7246 13.4531 59.7246 13.7656ZM68.4258 10.6602V11.4922H64.998V10.6602H68.4258ZM66.1582 9.11914H67.2422V15.4297C67.2422 15.6445 67.2754 15.8066 67.3418 15.916C67.4082 16.0254 67.4941 16.0977 67.5996 16.1328C67.7051 16.168 67.8184 16.1855 67.9395 16.1855C68.0293 16.1855 68.123 16.1777 68.2207 16.1621C68.3223 16.1426 68.3984 16.127 68.4492 16.1152L68.4551 17C68.3691 17.0273 68.2559 17.0527 68.1152 17.0762C67.9785 17.1035 67.8125 17.1172 67.6172 17.1172C67.3516 17.1172 67.1074 17.0645 66.8848 16.959C66.6621 16.8535 66.4844 16.6777 66.3516 16.4316C66.2227 16.1816 66.1582 15.8457 66.1582 15.4238V9.11914Z" fill="black"/>
</svg>
